<?xml version="1.0" encoding="UTF-8"?>
<svg version="1.1" xmlns="http://www.w3.org/2000/svg" width="77" height="82">
<path d="M0 0 C8.06849076 7.62480593 11.84071425 17.01945595 12.23046875 28.0625 C11.38152793 38.24978979 7.74683845 48.19282827 0.046875 55.2109375 C-9.0739053 62.07244194 -18.1904425 64.51183844 -29.515625 63.62109375 C-38.64399917 62.07529064 -46.92620817 57.08842808 -52.65234375 49.8828125 C-59.27770183 40.28871473 -61.39671851 30.34207246 -59.39453125 18.875 C-56.59773356 9.17300526 -51.60882126 1.14649495 -43.10546875 -4.5 C-28.78129579 -12.26130487 -12.54682503 -10.01742518 0 0 Z " fill="#F3CE73" transform="translate(62.08203125,14.1875)"/>
<path d="M0 0 C7.26458426 4.98142921 12.04726059 10.41915812 13.78515625 19.15625 C15.4119132 29.50959296 14.81996017 39.82266746 8.59765625 48.65625 C3.86359407 54.20792207 -3.14718026 58.51533967 -10.40234375 59.78125 C-19.27682407 60.46304257 -26.44219181 59.88971552 -34.40234375 55.78125 C-34.07234375 54.79125 -33.74234375 53.80125 -33.40234375 52.78125 C-32.41234375 52.78125 -31.42234375 52.78125 -30.40234375 52.78125 C-30.40234375 52.12125 -30.40234375 51.46125 -30.40234375 50.78125 C-29.04109375 51.27625 -29.04109375 51.27625 -27.65234375 51.78125 C-19.199142 54.12082301 -11.27105977 53.6741455 -3.6015625 49.3515625 C0.33396282 46.5414716 3.43180944 43.11294363 5.59765625 38.78125 C5.63788016 36.4482634 5.64085872 34.11418334 5.59765625 31.78125 C4.60765625 31.78125 3.61765625 31.78125 2.59765625 31.78125 C0.47265625 30.46875 0.47265625 30.46875 -1.40234375 27.78125 C-1.80463342 24.95251843 -1.96537274 22.19581683 -2.03125 19.33984375 C-2.46391708 16.35671806 -3.05926224 15.59507075 -5.40234375 13.78125 C-6.39234375 13.12125 -7.38234375 12.46125 -8.40234375 11.78125 C-8.9140625 9.6171875 -8.9140625 9.6171875 -9.08984375 7.15625 C-9.15558594 6.33898438 -9.22132812 5.52171875 -9.2890625 4.6796875 C-9.34513672 3.73996094 -9.34513672 3.73996094 -9.40234375 2.78125 C-22.78862067 2.92313796 -22.78862067 2.92313796 -34.10546875 9.35546875 C-40.6209074 16.39277506 -41.73937784 22.2993578 -41.60546875 31.6953125 C-41.42190107 34.4841292 -41.02910906 37.06189729 -40.40234375 39.78125 C-43.37234375 40.27625 -43.37234375 40.27625 -46.40234375 40.78125 C-50.03730603 31.17040974 -49.32057359 21.54061871 -45.5703125 12.0859375 C-44.37786755 9.73295248 -43.14314806 7.76421344 -41.40234375 5.78125 C-40.74234375 5.78125 -40.08234375 5.78125 -39.40234375 5.78125 C-39.07234375 4.79125 -38.74234375 3.80125 -38.40234375 2.78125 C-26.91895493 -6.18139494 -12.68197366 -7.2370886 0 0 Z " fill="#FBD574" transform="translate(54.40234375,13.21875)"/>
<path d="M0 0 C8.06849076 7.62480593 11.84071425 17.01945595 12.23046875 28.0625 C11.38152793 38.24978979 7.74683845 48.19282827 0.046875 55.2109375 C-9.0739053 62.07244194 -18.1904425 64.51183844 -29.515625 63.62109375 C-38.64399917 62.07529064 -46.92620817 57.08842808 -52.65234375 49.8828125 C-59.27770183 40.28871473 -61.39671851 30.34207246 -59.39453125 18.875 C-56.59773356 9.17300526 -51.60882126 1.14649495 -43.10546875 -4.5 C-28.78129579 -12.26130487 -12.54682503 -10.01742518 0 0 Z M-47.08203125 2.8125 C-47.08203125 3.4725 -47.08203125 4.1325 -47.08203125 4.8125 C-48.07203125 5.1425 -49.06203125 5.4725 -50.08203125 5.8125 C-51.51431415 7.99259111 -51.51431415 7.99259111 -52.70703125 10.625 C-53.13242187 11.49769531 -53.5578125 12.37039062 -53.99609375 13.26953125 C-57.63606778 21.79335532 -57.32285023 31.69521009 -53.95703125 40.25 C-49.84155418 48.89480101 -44.89138978 53.93638224 -36.08203125 57.8125 C-27.88411098 60.51643589 -18.06600231 59.69070359 -10.33203125 56.078125 C-2.05168528 51.42043039 2.98934838 46.56246696 5.73046875 37.25 C7.25577626 30.58506935 6.90541307 24.53436869 5.91796875 17.8125 C5.75296875 16.595625 5.58796875 15.37875 5.41796875 14.125 C1.56867596 5.62447842 -5.3389725 -0.40235117 -13.76953125 -4.1875 C-25.19639778 -7.63712009 -38.41830405 -5.8512272 -47.08203125 2.8125 Z " fill="#A58B4E" transform="translate(62.08203125,14.1875)"/>
<path d="M0 0 C1.32 0 2.64 0 4 0 C4 2.31 4 4.62 4 7 C4.99 7 5.98 7 7 7 C7 5.02 7 3.04 7 1 C7.99 1 8.98 1 10 1 C10 2.98 10 4.96 10 7 C11.11375 7.28875 12.2275 7.5775 13.375 7.875 C17 9 17 9 19 11 C19.125 14.4375 19.125 14.4375 19 18 C18.84188612 21.05270463 18.84188612 21.05270463 20 24 C20.66 24 21.32 24 22 24 C22.41856088 28.269321 22.48038638 30.3303705 19.9375 33.875 C16.52910749 36.34064564 14.15576993 36.75554295 10 37 C10 39.31 10 41.62 10 44 C9.01 44 8.02 44 7 44 C7 41.69 7 39.38 7 37 C5.68 37 4.36 37 3 37 C3 39.31 3 41.62 3 44 C2.01 44 1.02 44 0 44 C0 41.69 0 39.38 0 37 C-2.64 37 -5.28 37 -8 37 C-8 35.68 -8 34.36 -8 33 C-6.02 32.505 -6.02 32.505 -4 32 C-4 25.4 -4 18.8 -4 12 C-5.32 11.67 -6.64 11.34 -8 11 C-8 9.68 -8 8.36 -8 7 C-5.36 7 -2.72 7 0 7 C0 4.69 0 2.38 0 0 Z " fill="#FCE7A6" transform="translate(32,19)"/>
<path d="M0 0 C0.70189453 0.00451172 1.40378906 0.00902344 2.12695312 0.01367188 C3.85550538 0.02543073 5.58401365 0.04336546 7.3125 0.0625 C7.39886719 0.67738281 7.48523438 1.29226562 7.57421875 1.92578125 C8.35556957 7.22526062 8.35556957 7.22526062 11.875 11 C12.679375 11.350625 13.48375 11.70125 14.3125 12.0625 C15.92897318 15.29544636 15.60023798 18.85874901 15.73828125 22.43359375 C16.07784224 25.21019192 16.07784224 25.21019192 18.35546875 26.91015625 C19.00128906 27.29042969 19.64710937 27.67070313 20.3125 28.0625 C20.9725 27.7325 21.6325 27.4025 22.3125 27.0625 C23.8672669 30.17203379 23.59894437 32.62516761 23.3125 36.0625 C21.5625 39.25 21.5625 39.25 19.3125 42.0625 C18.735 42.825625 18.1575 43.58875 17.5625 44.375 C14.26143233 46.85080075 11.39764683 46.7276519 7.3125 47.0625 C6.9825 47.3925 6.6525 47.7225 6.3125 48.0625 C3.95936445 48.13521741 1.60416332 48.14620868 -0.75 48.125 C-2.04035156 48.11597656 -3.33070312 48.10695312 -4.66015625 48.09765625 C-5.65917969 48.08605469 -6.65820312 48.07445312 -7.6875 48.0625 C-8.0175 46.7425 -8.3475 45.4225 -8.6875 44.0625 C-9.3475 44.0625 -10.0075 44.0625 -10.6875 44.0625 C-11.0175 42.7425 -11.3475 41.4225 -11.6875 40.0625 C-9.7075 40.0625 -7.7275 40.0625 -5.6875 40.0625 C-5.6875 42.3725 -5.6875 44.6825 -5.6875 47.0625 C-4.6975 47.0625 -3.7075 47.0625 -2.6875 47.0625 C-2.6875 44.7525 -2.6875 42.4425 -2.6875 40.0625 C-1.3675 40.0625 -0.0475 40.0625 1.3125 40.0625 C1.3125 42.3725 1.3125 44.6825 1.3125 47.0625 C2.3025 47.0625 3.2925 47.0625 4.3125 47.0625 C4.3125 44.7525 4.3125 42.4425 4.3125 40.0625 C5.25222656 39.91554688 5.25222656 39.91554688 6.2109375 39.765625 C7.02820313 39.61609375 7.84546875 39.4665625 8.6875 39.3125 C9.49960937 39.17328125 10.31171875 39.0340625 11.1484375 38.890625 C13.44252531 38.24946163 13.44252531 38.24946163 14.5625 36.21875 C15.60728427 33.21499522 15.94903022 30.21257146 16.3125 27.0625 C15.6525 27.0625 14.9925 27.0625 14.3125 27.0625 C12.6875 25.0625 12.6875 25.0625 11.3125 23.0625 C11.6425 22.4025 11.9725 21.7425 12.3125 21.0625 C12.5625 17.5625 12.5625 17.5625 12.3125 14.0625 C9.84971199 11.59971199 7.60573018 11.06478745 4.3125 10.0625 C4.3125 8.0825 4.3125 6.1025 4.3125 4.0625 C3.3225 4.0625 2.3325 4.0625 1.3125 4.0625 C1.3125 6.0425 1.3125 8.0225 1.3125 10.0625 C0.3225 10.0625 -0.6675 10.0625 -1.6875 10.0625 C-1.6875 7.7525 -1.6875 5.4425 -1.6875 3.0625 C-3.0075 3.0625 -4.3275 3.0625 -5.6875 3.0625 C-5.6875 5.3725 -5.6875 7.6825 -5.6875 10.0625 C-8.6575 10.0625 -11.6275 10.0625 -14.6875 10.0625 C-15.0175 11.3825 -15.3475 12.7025 -15.6875 14.0625 C-15.6875 13.4025 -15.6875 12.7425 -15.6875 12.0625 C-17.0075 11.7325 -18.3275 11.4025 -19.6875 11.0625 C-19.308818 8.41746358 -18.90386083 7.26964367 -16.9453125 5.39453125 C-15.88957031 4.64236328 -15.88957031 4.64236328 -14.8125 3.875 C-14.11382812 3.36582031 -13.41515625 2.85664063 -12.6953125 2.33203125 C-8.58417492 -0.26742345 -4.68607947 -0.05688052 0 0 Z " fill="#C69E3F" transform="translate(37.6875,15.9375)"/>
<path d="M0 0 C8.63863081 5.82528361 13.39137563 13.82644364 15.484375 23.9296875 C17.09647628 34.51093411 14.51139003 43.73289534 8.9140625 52.75 C6.80070777 55.35569671 4.65037267 57.79178751 1.9140625 59.75 C0.9240625 59.75 -0.0659375 59.75 -1.0859375 59.75 C-0.09939471 55.80382883 1.27051747 53.1863884 3.8515625 50.125 C9.91558454 42.29230486 10.46320058 33.20264403 9.33984375 23.6484375 C9.19933594 22.69195312 9.05882812 21.73546875 8.9140625 20.75 C8.7490625 19.533125 8.5840625 18.31625 8.4140625 17.0625 C4.736501 8.94121836 -1.71964554 2.81378257 -9.984375 -0.48046875 C-18.48126542 -2.58863929 -26.84350707 -1.88123741 -35.0859375 0.75 C-25.92960922 -9.43320622 -10.32330629 -6.18625096 0 0 Z " fill="#A28538" transform="translate(58.0859375,11.25)"/>
<path d="M0 0 C4.75 0.75 4.75 0.75 7 3 C7.125 6.4375 7.125 6.4375 7 10 C6.84188612 13.05270463 6.84188612 13.05270463 8 16 C8.66 16 9.32 16 10 16 C10.3125 19.1875 10.3125 19.1875 10 23 C7.5 25.9375 7.5 25.9375 5 28 C4.34 27.67 3.68 27.34 3 27 C3.33 26.34 3.66 25.68 4 25 C4.66 25.33 5.32 25.66 6 26 C5.67 24.68 5.34 23.36 5 22 C4.175 22.495 3.35 22.99 2.5 23.5 C-1.75488188 25.32352081 -4.42308671 25.23673689 -9 25 C-9 21.7 -9 18.4 -9 15 C-1.375 13.875 -1.375 13.875 2 15 C2.66 14.01 3.32 13.02 4 12 C-0.62 12 -5.24 12 -10 12 C-10 9.03 -10 6.06 -10 3 C-7.03 3 -4.06 3 -1 3 C-0.67 2.01 -0.34 1.02 0 0 Z " fill="#F5E09E" transform="translate(44,27)"/>
<path d="M0 0 C-0.23046875 2.328125 -0.23046875 2.328125 -1 5 C-2.92578125 6.546875 -2.92578125 6.546875 -5.3125 7.75 C-6.09238281 8.15734375 -6.87226562 8.5646875 -7.67578125 8.984375 C-14.84150839 12.11561711 -23.67783012 12.2310658 -31.140625 10.10546875 C-33.4855379 9.15745397 -35.7530948 8.159693 -38 7 C-37.67 6.01 -37.34 5.02 -37 4 C-36.01 4 -35.02 4 -34 4 C-34 3.34 -34 2.68 -34 2 C-32.63875 2.495 -32.63875 2.495 -31.25 3 C-21.86863933 5.58600888 -14.12549638 4.22484484 -5.49609375 -0.00390625 C-3 -1 -3 -1 0 0 Z " fill="#FCE99F" transform="translate(58,62)"/>
<path d="M0 0 C0.99 0.66 1.98 1.32 3 2 C3.66 1.67 4.32 1.34 5 1 C6.5547669 4.10953379 6.28644437 6.56266761 6 10 C4.25 13.1875 4.25 13.1875 2 16 C1.4225 16.763125 0.845 17.52625 0.25 18.3125 C-3.05106767 20.78830075 -5.91485317 20.6651519 -10 21 C-10.33 21.33 -10.66 21.66 -11 22 C-13.35313555 22.07271741 -15.70833668 22.08370868 -18.0625 22.0625 C-19.35285156 22.05347656 -20.64320312 22.04445313 -21.97265625 22.03515625 C-22.97167969 22.02355469 -23.97070312 22.01195313 -25 22 C-25.33 20.68 -25.66 19.36 -26 18 C-26.66 18 -27.32 18 -28 18 C-28.33 16.68 -28.66 15.36 -29 14 C-27.02 14 -25.04 14 -23 14 C-23 16.31 -23 18.62 -23 21 C-22.01 21 -21.02 21 -20 21 C-20 18.69 -20 16.38 -20 14 C-18.68 14 -17.36 14 -16 14 C-16 16.31 -16 18.62 -16 21 C-15.01 21 -14.02 21 -13 21 C-13 20.34 -13 19.68 -13 19 C-12.01 19 -11.02 19 -10 19 C-10 18.01 -10 17.02 -10 16 C-9.44570313 15.82984375 -8.89140625 15.6596875 -8.3203125 15.484375 C-7.23363281 15.12085938 -7.23363281 15.12085938 -6.125 14.75 C-5.40570313 14.51796875 -4.68640625 14.2859375 -3.9453125 14.046875 C-1.44626927 12.70200836 -0.91342893 11.6641677 0 9 C0.23979762 6.63777768 0.23979762 6.63777768 0.125 4.25 C0.09792969 3.05117188 0.09792969 3.05117188 0.0703125 1.828125 C0.04710938 1.22484375 0.02390625 0.6215625 0 0 Z " fill="#BF943A" transform="translate(55,42)"/>
<path d="M0 0 C0.66 1.32 1.32 2.64 2 4 C2.66 4 3.32 4 4 4 C6.35979649 15.79898247 4.32000986 25.81867863 -2 36 C-4.11335473 38.60569671 -6.26368983 41.04178751 -9 43 C-9.99 43 -10.98 43 -12 43 C-10.99984146 38.99936585 -9.54007151 36.24068704 -7 33.0625 C-4.13548221 29.43643968 -2.93812499 26.50299995 -2 22 C-1.34 22 -0.68 22 0 22 C0 14.74 0 7.48 0 0 Z " fill="#8E742D" transform="translate(69,28)"/>
<path d="M0 0 C0 0.33 0 0.66 0 1 C-0.79664063 1.18175781 -1.59328125 1.36351562 -2.4140625 1.55078125 C-10.5185179 3.44797673 -10.5185179 3.44797673 -18 7 C-18.56074219 7.33644531 -19.12148438 7.67289063 -19.69921875 8.01953125 C-26.85295641 12.65937412 -31.04473154 19.11928411 -34 27 C-34.99 27 -35.98 27 -37 27 C-36.59314111 36.35775436 -35.39561147 44.92982326 -33 54 C-33.66 54 -34.32 54 -35 54 C-39.46442323 41.10499182 -40.60448087 31.6357238 -34.875 19 C-30.69164867 11.02586989 -24.5262125 5.05656675 -16 2 C-10.60829575 0.3768918 -5.61515247 -0.23894266 0 0 Z " fill="#A48F4E" transform="translate(41,5)"/>
<path d="M0 0 C-0.495 1.216875 -0.99 2.43375 -1.5 3.6875 C-4.01834814 11.18314942 -3.75817593 19.3434274 -2 27 C-3.98 27.33 -5.96 27.66 -8 28 C-10.84847073 20.54404274 -11.71226891 11.24112241 -8.625 3.6875 C-6.18667134 -0.34512048 -4.46491041 -0.11749764 0 0 Z " fill="#FCE78F" transform="translate(16,26)"/>
<path d="M0 0 C0.33 0.66 0.66 1.32 1 2 C2.91666667 2.83333333 2.91666667 2.83333333 5 3 C5.66 2.34 6.32 1.68 7 1 C7 2.32 7 3.64 7 5 C8.65 5.33 10.3 5.66 12 6 C12 12.6 12 19.2 12 26 C10.68 25.67 9.36 25.34 8 25 C8.66 25 9.32 25 10 25 C10 21.37 10 17.74 10 14 C8.5975 13.71125 7.195 13.4225 5.75 13.125 C2.53342384 12.46276373 -0.11371599 11.57554035 -3 10 C-2.25 3.375 -2.25 3.375 0 0 Z " fill="#D9B15F" transform="translate(17,25)"/>
<path d="M0 0 C2.4375 0.375 2.4375 0.375 5 1 C6 3 6 3 5 6.5 C3.54399013 9.69790297 3.14739312 9.93603695 -0.3125 11.4375 C-3.62659272 11.94303957 -6.65661969 12.16309172 -10 12 C-10 9.03 -10 6.06 -10 3 C-7.03 3 -4.06 3 -1 3 C-0.67 2.01 -0.34 1.02 0 0 Z " fill="#F4DF9D" transform="translate(44,27)"/>
<path d="M0 0 C5.46242066 0.35819152 8.47263438 2.172282 12.6875 5.5625 C15.20555417 8.74709792 15.27283003 10.29116177 14.8125 14.25 C12.8325 15.24 12.8325 15.24 10.8125 16.25 C10.43738281 15.70730469 10.06226563 15.16460937 9.67578125 14.60546875 C6.71831248 10.4709721 4.38074332 7.66848176 -0.1875 5.25 C-0.1875 4.59 -0.1875 3.93 -0.1875 3.25 C-1.5075 2.59 -2.8275 1.93 -4.1875 1.25 C-3.1875 0.25 -3.1875 0.25 0 0 Z " fill="#FEF394" transform="translate(49.1875,13.75)"/>
<path d="M0 0 C0.99 0 1.98 0 3 0 C2.94199219 1.01578125 2.88398437 2.0315625 2.82421875 3.078125 C2.40083812 13.76294946 3.7702434 22.51936809 10.25 31.4375 C13.8036045 34.74881328 17.66225646 36.8642047 22 39 C18.07747349 40.30750884 16.09590786 39.50234743 12.2890625 38.14453125 C7.54483417 35.77241708 4.8656657 31.94774782 2.75 27.1875 C2.5025 26.135625 2.255 25.08375 2 24 C1.81695312 23.30519531 1.63390625 22.61039063 1.4453125 21.89453125 C-0.28992716 14.60890171 -0.19334465 7.45451033 0 0 Z " fill="#9D8548" transform="translate(4,32)"/>
<path d="M0 0 C0.66 0.99 1.32 1.98 2 3 C1.67 3.66 1.34 4.32 1 5 C4.96 6.32 8.92 7.64 13 9 C13 12.63 13 16.26 13 20 C12.67 20 12.34 20 12 20 C12 17.36 12 14.72 12 12 C10.39402675 12.45196245 8.79027492 12.91182327 7.1875 13.375 C6.29417969 13.63023438 5.40085937 13.88546875 4.48046875 14.1484375 C1.79532104 14.95266661 1.79532104 14.95266661 -1 17 C-1.02691685 14.54159395 -1.04679802 12.08348118 -1.0625 9.625 C-1.07087891 8.92632812 -1.07925781 8.22765625 -1.08789062 7.5078125 C-1.11328125 2.2265625 -1.11328125 2.2265625 0 0 Z " fill="#EAC26D" transform="translate(14,30)"/>
<path d="M0 0 C0.66 0 1.32 0 2 0 C2 1.32 2 2.64 2 4 C2.99 4.33 3.98 4.66 5 5 C5 5.99 5 6.98 5 8 C5.66 8 6.32 8 7 8 C7.33 8.99 7.66 9.98 8 11 C10.31243792 11.02685412 12.6249627 11.04632841 14.9375 11.0625 C16.86916016 11.07990234 16.86916016 11.07990234 18.83984375 11.09765625 C21.86298403 11.36532549 21.86298403 11.36532549 23 10 C25.33297433 9.95907063 27.66705225 9.95758277 30 10 C23.47145662 15.31955386 17.19221973 15.74572976 9 15 C6.38848284 14.2444942 4.40106881 13.3096739 2 12 C2.33 10.35 2.66 8.7 3 7 C2.01 6.67 1.02 6.34 0 6 C0 4.02 0 2.04 0 0 Z " fill="#DEBB6A" transform="translate(22,52)"/>
<path d="M0 0 C2.125 0.375 2.125 0.375 4 1 C2.21470545 7.76532673 -0.49937851 12.65460165 -5 18 C-5.33 16.68 -5.66 15.36 -6 14 C-7.65 14 -9.3 14 -11 14 C-9 11.33333333 -7 8.66666667 -5 6 C-4.48050781 5.29359375 -3.96101563 4.5871875 -3.42578125 3.859375 C-2 2 -2 2 0 0 Z " fill="#F4C96B" transform="translate(64,48)"/>
<path d="M0 0 C6.8359375 -0.1953125 6.8359375 -0.1953125 9 0 C9.66 0.66 10.32 1.32 11 2 C10.75 5.0625 10.75 5.0625 10 8 C6.78548731 9.60725635 3.56387464 9.05748185 0 9 C0 6.03 0 3.06 0 0 Z " fill="#CDAE61" transform="translate(35,43)"/>
<path d="M0 0 C0.33 0 0.66 0 1 0 C1.04898438 0.67546875 1.09796875 1.3509375 1.1484375 2.046875 C1.22320312 2.93890625 1.29796875 3.8309375 1.375 4.75 C1.44460937 5.63171875 1.51421875 6.5134375 1.5859375 7.421875 C2.00168261 10.01047665 2.7967638 11.69983763 4 14 C4.1875 17 4.1875 17 4 20 C3.95875 20.721875 3.9175 21.44375 3.875 22.1875 C2.423806 25.19354471 0.00197676 25.82275421 -3 27 C-4.32 27 -5.64 27 -7 27 C-7 27.99 -7 28.98 -7 30 C-7.99 30 -8.98 30 -10 30 C-10 28.35 -10 26.7 -10 25 C-9.06027344 24.85304688 -9.06027344 24.85304688 -8.1015625 24.703125 C-7.28429688 24.55359375 -6.46703125 24.4040625 -5.625 24.25 C-4.81289063 24.11078125 -4.00078125 23.9715625 -3.1640625 23.828125 C-0.86997469 23.18696163 -0.86997469 23.18696163 0.25 21.15625 C1.29478427 18.15249522 1.63653022 15.15007146 2 12 C1.34 12 0.68 12 0 12 C-1.8125 10.5 -1.8125 10.5 -3 8 C-2.3418716 5.17328459 -1.23907802 2.61794945 0 0 Z " fill="#AE8C3C" transform="translate(52,31)"/>
<path d="M0 0 C0.33 0 0.66 0 1 0 C1 2.31 1 4.62 1 7 C3.97 6.34 6.94 5.68 10 5 C10.05437607 6.58294782 10.09296271 8.16644256 10.125 9.75 C10.14820313 10.63171875 10.17140625 11.5134375 10.1953125 12.421875 C9.99139502 15.1135858 9.36551721 16.69904974 8 19 C7.34 17.02 6.68 15.04 6 13 C5.01 13.495 5.01 13.495 4 14 C2 12.625 2 12.625 0 10 C-0.35791096 6.6419531 -0.23115823 3.36463643 0 0 Z " fill="#DFB356" transform="translate(53,31)"/>
<path d="M0 0 C0.66 1.32 1.32 2.64 2 4 C2.66 4 3.32 4 4 4 C5.58624303 11.93121517 5.19306815 18.32426147 3 26 C2.34 26 1.68 26 1 26 C0.34 27.32 -0.32 28.64 -1 30 C-0.125 24.25 -0.125 24.25 1 22 C1.09843033 19.60582688 1.12973088 17.20869095 1.125 14.8125 C1.12757812 13.51957031 1.13015625 12.22664063 1.1328125 10.89453125 C1.00529215 7.15518438 0.60205223 3.68398625 0 0 Z " fill="#816D38" transform="translate(69,28)"/>
<path d="M0 0 C1.98 0 3.96 0 6 0 C6 2.31 6 4.62 6 7 C6.99 7 7.98 7 9 7 C9 4.69 9 2.38 9 0 C10.32 0 11.64 0 13 0 C13 2.31 13 4.62 13 7 C13.99 7.33 14.98 7.66 16 8 C12.04 8 8.08 8 4 8 C3.67 6.68 3.34 5.36 3 4 C2.34 4 1.68 4 1 4 C0.67 2.68 0.34 1.36 0 0 Z " fill="#B79950" transform="translate(26,56)"/>
<path d="M0 0 C1.32 0.33 2.64 0.66 4 1 C4 1.66 4 2.32 4 3 C4.70125 3.185625 5.4025 3.37125 6.125 3.5625 C11.17467252 6.08733626 14.85515899 10.78960574 17 16 C16.625 18.75 16.625 18.75 16 21 C14.03434599 18.67695436 12.97947164 16.93430924 12.0625 14 C10.8830765 10.66986306 9.74850045 9.18263271 7 7 C4.8618034 6.2127322 4.8618034 6.2127322 3 6 C2.34 6.99 1.68 7.98 1 9 C0.67 6.03 0.34 3.06 0 0 Z " fill="#E9C56B" transform="translate(45,16)"/>
<path d="M0 0 C5.81316339 0.29065817 10.13978949 3.07307323 15 6 C14.01 6.33 13.02 6.66 12 7 C11.67 6.67 11.34 6.34 11 6 C7.5 5.83333333 7.5 5.83333333 4 6 C3.67 6.33 3.34 6.66 3 7 C0.64686445 7.07271741 -1.70833668 7.08370868 -4.0625 7.0625 C-5.35285156 7.05347656 -6.64320312 7.04445313 -7.97265625 7.03515625 C-8.97167969 7.02355469 -9.97070312 7.01195312 -11 7 C-11 6.67 -11 6.34 -11 6 C-6.545 5.505 -6.545 5.505 -2 5 C-1.67 3.68 -1.34 2.36 -1 1 C-0.67 0.67 -0.34 0.34 0 0 Z " fill="#F0C763" transform="translate(42,9)"/>
<path d="M0 0 C-0.27223814 3.35760377 -0.58370371 4.64317461 -3.1875 6.875 C-6.63099556 8.25239822 -8.46879834 8.02012492 -12 7 C-12.66 6.34 -13.32 5.68 -14 5 C-13.01 5 -12.02 5 -11 5 C-10.67 4.01 -10.34 3.02 -10 2 C-3.73913043 -1.24637681 -3.73913043 -1.24637681 0 0 Z " fill="#FCF6B7" transform="translate(58,62)"/>
<path d="M0 0 C6.15234375 -0.09765625 6.15234375 -0.09765625 8 0 C9 1 9 1 9.0625 3.5625 C9.041875 4.366875 9.02125 5.17125 9 6 C5.86501708 7.85776765 3.62528568 8.20140476 0 8 C0 5.36 0 2.72 0 0 Z " fill="#A7893B" transform="translate(35,31)"/>
<path d="M0 0 C-0.66 1.32 -1.32 2.64 -2 4 C-3.32 4 -4.64 4 -6 4 C-5.67 5.65 -5.34 7.3 -5 9 C-8.09478879 10.03159626 -9.52631393 9.97482862 -12.6875 9.5625 C-13.49574219 9.46066406 -14.30398437 9.35882813 -15.13671875 9.25390625 C-15.75160156 9.17011719 -16.36648437 9.08632813 -17 9 C-12.88560246 4.06272295 -6.66144254 0 0 0 Z " fill="#F7CE68" transform="translate(32,9)"/>
<path d="M0 0 C0.625 1.75 0.625 1.75 1 4 C0.68417969 4.57363281 0.36835937 5.14726562 0.04296875 5.73828125 C-3.94151896 14.37879955 -0.42356398 26.31556241 2 35 C1.34 35 0.68 35 0 35 C-4.47896455 22.06299079 -5.58179671 12.75839249 0 0 Z " fill="#A18D67" transform="translate(6,24)"/>
<path d="M0 0 C1.485 0.99 1.485 0.99 3 2 C3.66 1.67 4.32 1.34 5 1 C6.53214888 4.06429776 6.22938548 6.6165642 6 10 C4.5 12.9375 4.5 12.9375 3 15 C0.03090402 11.72698081 -0.34354794 9.61934238 -0.1875 5.25 C-0.16042969 4.26515625 -0.13335937 3.2803125 -0.10546875 2.265625 C-0.07066406 1.51796875 -0.03585938 0.7703125 0 0 Z " fill="#CFA44A" transform="translate(55,42)"/>
<path d="M0 0 C0.99 0 1.98 0 3 0 C2.95359375 1.03898437 2.9071875 2.07796875 2.859375 3.1484375 C2.62293772 10.84557911 2.66843314 17.09852623 6.125 24.1796875 C7 26 7 26 7 28 C6.34 28 5.68 28 5 28 C5 27.34 5 26.68 5 26 C4.34 26 3.68 26 3 26 C0.29031963 17.19353881 -0.36706108 9.19012194 0 0 Z " fill="#B09138" transform="translate(4,32)"/>
<path d="M0 0 C-6.01798308 4.77288313 -11.58578188 4.25397849 -19 4 C-22.75 3.5 -22.75 3.5 -25 3 C-25 2.67 -25 2.34 -25 2 C-8.29157175 -0.29612756 -8.29157175 -0.29612756 0 0 Z " fill="#836B30" transform="translate(55,73)"/>
<path d="M0 0 C3.5027333 5.25409995 2.52575203 11.88500317 2 18 C1.04528948 21.28294326 -0.28153395 24.05853804 -2 27 C-2.6731582 28.33006776 -3.34164978 29.66254076 -4 31 C-4.66 30.67 -5.32 30.34 -6 30 C-4.68 26.04 -3.36 22.08 -2 18 C-1.34 18 -0.68 18 0 18 C0 12.06 0 6.12 0 0 Z " fill="#926D14" transform="translate(69,32)"/>
<path d="M0 0 C1.98 0 3.96 0 6 0 C6 6.6 6 13.2 6 20 C4.68 19.67 3.36 19.34 2 19 C2.66 19 3.32 19 4 19 C3.91304042 16.39421134 3.80618592 13.7918721 3.6875 11.1875 C3.66494141 10.44951172 3.64238281 9.71152344 3.61914062 8.95117188 C3.44442045 4.66892961 3.44442045 4.66892961 1.45703125 0.98828125 C0.97621094 0.66214844 0.49539062 0.33601563 0 0 Z " fill="#C0A357" transform="translate(23,31)"/>
<path d="M0 0 C2.33294775 -0.04241723 4.66702567 -0.04092937 7 0 C8 1 8 1 8.0625 4.5625 C8.041875 5.696875 8.02125 6.83125 8 8 C7.34 8 6.68 8 6 8 C6 5.69 6 3.38 6 1 C4.68 1 3.36 1 2 1 C2 3.31 2 5.62 2 8 C-0.64 8 -3.28 8 -6 8 C-5.67 7.34 -5.34 6.68 -5 6 C-3.68 6 -2.36 6 -1 6 C-0.67 4.02 -0.34 2.04 0 0 Z " fill="#9A7828" transform="translate(30,18)"/>
<path d="M0 0 C0 0.99 0 1.98 0 3 C0.99 2.67 1.98 2.34 3 2 C3 2.66 3 3.32 3 4 C1.824375 4.37125 1.824375 4.37125 0.625 4.75 C-2.32317108 6.15389099 -2.9024777 7.00675737 -4 10 C-4 9.34 -4 8.68 -4 8 C-5.32 7.67 -6.64 7.34 -8 7 C-7.08529012 1.6946827 -5.46561428 0 0 0 Z " fill="#C1983A" transform="translate(26,20)"/>
<path d="M0 0 C0.72445312 -0.01224609 1.44890625 -0.02449219 2.1953125 -0.03710938 C6.00700298 -0.04765833 7.7536304 0.0232536 11 2.1875 C7.32872046 3.33477486 3.82958514 3.35471618 0 3.375 C-1.8253125 3.39626953 -1.8253125 3.39626953 -3.6875 3.41796875 C-6.7719563 3.20336625 -8.42673876 2.81508774 -11 1.1875 C-7.30054001 -0.04565333 -3.85232442 0.00342733 0 0 Z " fill="#FCE590" transform="translate(37,69.8125)"/>
<path d="M0 0 C0 0.33 0 0.66 0 1 C-0.79664062 1.18175781 -1.59328125 1.36351562 -2.4140625 1.55078125 C-7.98375793 2.87205936 -12.97342431 4.18021364 -18 7 C-19.65910004 7.68528045 -21.32332564 8.35891863 -23 9 C-23 8.34 -23 7.68 -23 7 C-15.99646673 1.03954615 -9.04612883 -0.38494165 0 0 Z " fill="#9B854A" transform="translate(41,5)"/>
<path d="M0 0 C2.97 0 5.94 0 9 0 C9.3403125 2.1346875 9.3403125 2.1346875 9.6875 4.3125 C10.5018969 8.25600998 10.5018969 8.25600998 13.5625 10.875 C14.366875 11.24625 15.17125 11.6175 16 12 C17 15 17 15 16.0625 17.1875 C15.711875 17.785625 15.36125 18.38375 15 19 C14.6596875 17.576875 14.6596875 17.576875 14.3125 16.125 C13.30916286 12.80676612 13.30916286 12.80676612 10.375 11.625 C9.59125 11.41875 8.8075 11.2125 8 11 C7.67 8.36 7.34 5.72 7 3 C4.69 2.34 2.38 1.68 0 1 C0 0.67 0 0.34 0 0 Z " fill="#CCA64A" transform="translate(36,16)"/>
<path d="M0 0 C-2.06756277 2.7972908 -3.14440371 3.02692273 -6.6875 3.6875 C-7.780625 3.790625 -8.87375 3.89375 -10 4 C-10 4.99 -10 5.98 -10 7 C-10.99 7 -11.98 7 -13 7 C-13 5.35 -13 3.7 -13 2 C-11.5882217 1.46605821 -10.17029756 0.94834896 -8.75 0.4375 C-7.96109375 0.14746094 -7.1721875 -0.14257812 -6.359375 -0.44140625 C-3.80896548 -1.04522837 -2.44677771 -0.8473932 0 0 Z " fill="#A88533" transform="translate(55,54)"/>
<path d="M0 0 C4.03837057 0.26481119 6.35406471 1.22555008 9.8125 3.25 C8.8225 3.58 7.8325 3.91 6.8125 4.25 C5.5440625 4.806875 5.5440625 4.806875 4.25 5.375 C3.445625 5.66375 2.64125 5.9525 1.8125 6.25 C1.1525 5.92 0.4925 5.59 -0.1875 5.25 C-0.1875 4.59 -0.1875 3.93 -0.1875 3.25 C-1.5075 2.59 -2.8275 1.93 -4.1875 1.25 C-3.1875 0.25 -3.1875 0.25 0 0 Z " fill="#FAD47A" transform="translate(49.1875,13.75)"/>
<path d="M0 0 C0.66 0.33 1.32 0.66 2 1 C1.34 2.98 0.68 4.96 0 7 C-2.97 7 -5.94 7 -9 7 C-9 6.34 -9 5.68 -9 5 C-7.54735962 4.1361871 -6.0876837 3.28419546 -4.625 2.4375 C-3.40683594 1.72400391 -3.40683594 1.72400391 -2.1640625 0.99609375 C-1.44992188 0.66738281 -0.73578125 0.33867188 0 0 Z " fill="#987E29" transform="translate(57,66)"/>
<path d="M0 0 C2 1.3125 2 1.3125 4 3 C4 3.99 4 4.98 4 6 C1.6875 7.125 1.6875 7.125 -1 8 C-1.99 7.34 -2.98 6.68 -4 6 C-3.6875 4.125 -3.6875 4.125 -3 2 C-2.01 1.34 -1.02 0.68 0 0 Z " fill="#F7D57A" transform="translate(20,60)"/>
<path d="M0 0 C6.0546875 -0.1953125 6.0546875 -0.1953125 8 0 C8.66 0.66 9.32 1.32 10 2 C9.625 4.625 9.625 4.625 9 7 C8.34 6.67 7.68 6.34 7 6 C7.33 5.01 7.66 4.02 8 3 C5.69 2.67 3.38 2.34 1 2 C1 3.98 1 5.96 1 8 C0.67 8 0.34 8 0 8 C0 5.36 0 2.72 0 0 Z " fill="#987C32" transform="translate(36,43)"/>
<path d="M0 0 C2.375 0.6875 2.375 0.6875 5 2 C6.3125 4.625 6.3125 4.625 7 7 C4.36 6.34 1.72 5.68 -1 5 C-0.67 3.35 -0.34 1.7 0 0 Z " fill="#FEE284" transform="translate(48,21)"/>
<path d="M0 0 C1.98 0 3.96 0 6 0 C8 5.75 8 5.75 8 8 C7.01 8 6.02 8 5 8 C5 6.02 5 4.04 5 2 C4.01 2 3.02 2 2 2 C2 3.98 2 5.96 2 8 C1.67 8 1.34 8 1 8 C0.67 5.36 0.34 2.72 0 0 Z " fill="#B29346" transform="translate(37,18)"/>
<path d="M0 0 C-0.33 0.66 -0.66 1.32 -1 2 C-2.99226169 2.28919928 -4.98722182 2.57264551 -6.9921875 2.75390625 C-9.20329268 2.9575063 -9.20329268 2.9575063 -12 4 C-12 3.01 -12 2.02 -12 1 C-8.00439392 -1.83022097 -4.57262677 -0.76210446 0 0 Z " fill="#C8A152" transform="translate(54,60)"/>
<path d="M0 0 C1.32 0 2.64 0 4 0 C4 2.31 4 4.62 4 7 C2.68 7 1.36 7 0 7 C0 4.69 0 2.38 0 0 Z " fill="#EED692" transform="translate(32,19)"/>
<path d="M0 0 C1.32 0 2.64 0 4 0 C4.66 1.65 5.32 3.3 6 5 C3.69 5 1.38 5 -1 5 C-1 1 -1 1 0 0 Z " fill="#FAD576" transform="translate(11,52)"/>
<path d="M0 0 C0.99 0.33 1.98 0.66 3 1 C-1.30769231 5.92307692 -1.30769231 5.92307692 -4.8125 6.3125 C-5.8953125 6.1578125 -5.8953125 6.1578125 -7 6 C-2.25 1.125 -2.25 1.125 0 0 Z " fill="#EEC361" transform="translate(22,12)"/>
<path d="M0 0 C0.33 0 0.66 0 1 0 C1.3125 3.1875 1.3125 3.1875 1 7 C-1.5 9.9375 -1.5 9.9375 -4 12 C-4.66 11.67 -5.32 11.34 -6 11 C-5.67 10.34 -5.34 9.68 -5 9 C-4.34 9.33 -3.68 9.66 -3 10 C-2.87625 9.278125 -2.7525 8.55625 -2.625 7.8125 C-2.0095069 5.04278106 -1.11555626 2.6029646 0 0 Z " fill="#EFD791" transform="translate(53,43)"/>
<path d="M0 0 C0.33 0 0.66 0 1 0 C1.27429625 5.39449293 1.36055646 8.51925805 -2 13 C-2.66 12.67 -3.32 12.34 -4 12 C-2.68 8.04 -1.36 4.08 0 0 Z " fill="#A37E21" transform="translate(67,50)"/>
<path d="M0 0 C1.485 0.99 1.485 0.99 3 2 C3.1875 5.125 3.1875 5.125 3 8 C1.02 8.99 1.02 8.99 -1 10 C-0.34 7.69 0.32 5.38 1 3 C0.34 2.67 -0.32 2.34 -1 2 C-0.67 1.34 -0.34 0.68 0 0 Z " fill="#F9E584" transform="translate(61,20)"/>
<path d="M0 0 C0.556875 0.309375 1.11375 0.61875 1.6875 0.9375 C4.12540433 2.05761821 6.36224186 2.56037364 9 3 C9 3.99 9 4.98 9 6 C8.67 6 8.34 6 8 6 C7.67 6.66 7.34 7.32 7 8 C5.83035398 6.8572081 4.66435444 5.71068285 3.5 4.5625 C2.8503125 3.92441406 2.200625 3.28632813 1.53125 2.62890625 C0 1 0 1 0 0 Z " fill="#A58A40" transform="translate(56,14)"/>
<path d="M0 0 C0.33 0 0.66 0 1 0 C1.33 3.63 1.66 7.26 2 11 C1.01 11.495 1.01 11.495 0 12 C-1.6875 10.5 -1.6875 10.5 -3 8 C-2.35208262 5.17076078 -1.23902204 2.61783117 0 0 Z " fill="#A58634" transform="translate(52,31)"/>
<path d="M0 0 C0.66 0 1.32 0 2 0 C2 2.31 2 4.62 2 7 C0.35 7.33 -1.3 7.66 -3 8 C-2.01 5.36 -1.02 2.72 0 0 Z " fill="#FCE7A7" transform="translate(49,30)"/>
<path d="M0 0 C0.66 0.99 1.32 1.98 2 3 C1.67 3.66 1.34 4.32 1 5 C1.99 5.66 2.98 6.32 4 7 C2.68 7 1.36 7 0 7 C0 9.64 0 12.28 0 15 C-0.33 15 -0.66 15 -1 15 C-1.02693575 12.87506859 -1.04636628 10.75004088 -1.0625 8.625 C-1.07410156 7.44164062 -1.08570313 6.25828125 -1.09765625 5.0390625 C-1 2 -1 2 0 0 Z " fill="#E2BB65" transform="translate(14,30)"/>
<path d="M0 0 C1.11375 0.556875 1.11375 0.556875 2.25 1.125 C1.92 1.785 1.59 2.445 1.25 3.125 C-0.4 2.795 -2.05 2.465 -3.75 2.125 C-4.08 2.785 -4.41 3.445 -4.75 4.125 C-5.41 3.135 -6.07 2.145 -6.75 1.125 C-4.02098495 -0.69434337 -3.21400584 -1.02263822 0 0 Z " fill="#FCE789" transform="translate(58.75,17.875)"/>
<path d="M0 0 C1 3 1 3 0.00390625 5.04296875 C-0.47175781 5.75066406 -0.94742188 6.45835938 -1.4375 7.1875 C-1.91058594 7.90292969 -2.38367188 8.61835937 -2.87109375 9.35546875 C-3.24363281 9.89816406 -3.61617188 10.44085938 -4 11 C-4.625 9.1875 -4.625 9.1875 -5 7 C-4.34 6.01 -3.68 5.02 -3 4 C-2.34 4 -1.68 4 -1 4 C-0.67 2.68 -0.34 1.36 0 0 Z " fill="#867448" transform="translate(70,54)"/>
<path d="M0 0 C0.66 0 1.32 0 2 0 C2.1875 2.875 2.1875 2.875 2 6 C1.01 6.66 0.02 7.32 -1 8 C-1 6.68 -1 5.36 -1 4 C-1.66 4 -2.32 4 -3 4 C-3 3.34 -3 2.68 -3 2 C-2.01 2 -1.02 2 0 2 C0 1.34 0 0.68 0 0 Z " fill="#F5D781" transform="translate(59,58)"/>
<path d="M0 0 C3.3 1.65 6.6 3.3 10 5 C5.82412255 6.39195915 3.86525224 4.82323219 0 3 C0 2.01 0 1.02 0 0 Z " fill="#A68F3F" transform="translate(16,66)"/>
<path d="M0 0 C1.98 0.99 1.98 0.99 4 2 C4 4.64 4 7.28 4 10 C5.65 10 7.3 10 9 10 C9 10.33 9 10.66 9 11 C7.02 11 5.04 11 3 11 C2.87625 9.9275 2.7525 8.855 2.625 7.75 C2.10356064 4.62136385 1.59911746 2.66519576 0 0 Z " fill="#EDC667" transform="translate(51,27)"/>
<path d="M0 0 C5.56043956 1.45054945 5.56043956 1.45054945 7.5 3.875 C8 6 8 6 7.125 8.25 C6.75375 8.8275 6.3825 9.405 6 10 C5.773125 9.05125 5.54625 8.1025 5.3125 7.125 C4.30916286 3.80676612 4.30916286 3.80676612 1.375 2.625 C0.59125 2.41875 -0.1925 2.2125 -1 2 C-0.67 1.34 -0.34 0.68 0 0 Z " fill="#BCA354" transform="translate(45,25)"/>
<path d="M0 0 C-0.375 2.4375 -0.375 2.4375 -1 5 C-1.99 5.495 -1.99 5.495 -3 6 C-3.185625 5.071875 -3.185625 5.071875 -3.375 4.125 C-3.87197356 1.80879168 -3.87197356 1.80879168 -6 0 C-3 -1 -3 -1 0 0 Z " fill="#FCEC9E" transform="translate(58,62)"/>
<path d="M0 0 C1.98 0 3.96 0 6 0 C6 1.98 6 3.96 6 6 C5.34 6 4.68 6 4 6 C3.67 5.01 3.34 4.02 3 3 C1.50014391 1.33289654 1.50014391 1.33289654 0 0 Z " fill="#A38436" transform="translate(26,56)"/>
<path d="M0 0 C1.32 0.99 2.64 1.98 4 3 C3.67 3.66 3.34 4.32 3 5 C0.69 5 -1.62 5 -4 5 C-4 4.34 -4 3.68 -4 3 C-2 1.375 -2 1.375 0 0 Z " fill="#FADB81" transform="translate(13,22)"/>
<path d="M0 0 C0.99 0.33 1.98 0.66 3 1 C3 1.99 3 2.98 3 4 C1.35 4.66 -0.3 5.32 -2 6 C-1.125 1.125 -1.125 1.125 0 0 Z " fill="#FCDE87" transform="translate(21,62)"/>
<path d="M0 0 C1.98 0 3.96 0 6 0 C4.6875 2.5 4.6875 2.5 3 5 C2.01 5 1.02 5 0 5 C0 3.35 0 1.7 0 0 Z " fill="#9A7A2F" transform="translate(42,56)"/>
<path d="M0 0 C0.66 0.33 1.32 0.66 2 1 C1.34 2.98 0.68 4.96 0 7 C-0.66 6.67 -1.32 6.34 -2 6 C-1.67 5.34 -1.34 4.68 -1 4 C-2.32 3.67 -3.64 3.34 -5 3 C-2.625 1.4375 -2.625 1.4375 0 0 Z " fill="#A48D44" transform="translate(57,66)"/>
<path d="M0 0 C0.99 0.33 1.98 0.66 3 1 C2.625 3.4375 2.625 3.4375 2 6 C1.01 6.495 1.01 6.495 0 7 C-0.66 5.02 -1.32 3.04 -2 1 C-1.34 0.67 -0.68 0.34 0 0 Z " fill="#CB9E40" transform="translate(57,50)"/>
<path d="M0 0 C-0.33 1.32 -0.66 2.64 -1 4 C-2.32 4.33 -3.64 4.66 -5 5 C-4.625 3.0625 -4.625 3.0625 -4 1 C-2 0 -2 0 0 0 Z " fill="#816834" transform="translate(62,66)"/>
<path d="M0 0 C0.66 0 1.32 0 2 0 C2 1.32 2 2.64 2 4 C2.99 4.33 3.98 4.66 5 5 C5 5.33 5 5.66 5 6 C3.35 6 1.7 6 0 6 C0 4.02 0 2.04 0 0 Z " fill="#D3B05B" transform="translate(22,52)"/>
<path d="M0 0 C2.475 0.495 2.475 0.495 5 1 C4.67 1.99 4.34 2.98 4 4 C2.68 4 1.36 4 0 4 C0 2.68 0 1.36 0 0 Z " fill="#D9B55D" transform="translate(38,33)"/>
<path d="M0 0 C1.32 0.66 2.64 1.32 4 2 C3.34 3.65 2.68 5.3 2 7 C1.566875 6.0409375 1.566875 6.0409375 1.125 5.0625 C0.17176549 2.84793921 0.17176549 2.84793921 -2 2 C-1.34 1.34 -0.68 0.68 0 0 Z " fill="#B68E37" transform="translate(21,23)"/>
<path d="M0 0 C1.32 0.66 2.64 1.32 4 2 C3.01 2 2.02 2 1 2 C1 2.66 1 3.32 1 4 C1.66 4 2.32 4 3 4 C3 4.66 3 5.32 3 6 C1.68 5.67 0.36 5.34 -1 5 C-0.67 3.35 -0.34 1.7 0 0 Z " fill="#F5D57E" transform="translate(48,21)"/>
</svg>
